<?xml version="1.0" encoding="utf-8"?>
<!-- Generator: Adobe Illustrator 16.0.0, SVG Export Plug-In . SVG Version: 6.00 Build 0)  -->
<!DOCTYPE svg PUBLIC "-//W3C//DTD SVG 1.1//EN" "http://www.w3.org/Graphics/SVG/1.1/DTD/svg11.dtd">
<svg version="1.1" xmlns="http://www.w3.org/2000/svg" xmlns:xlink="http://www.w3.org/1999/xlink" x="0px" y="0px" width="1440px"
	 height="960px" viewBox="0 0 1440 960" enable-background="new 0 0 1440 960" xml:space="preserve">
<g id="Above">
</g>
<g id="Below">
	<g id="Top_1_">
		<rect id="Background_4_" fill="#3399FF" width="1440" height="960"/>
		<polygon id="Shape_15_" opacity="0.2" fill="#FFFFFF" points="1440,107.022 0,26.62 0,107.022 		"/>
		<polygon id="Shape_14_" opacity="0.2" fill="#FFFFFF" points="0,107.022 1440,-50.899 1440,107.022 		"/>
		<polygon id="Shape_13_" opacity="0.5" fill="#FFFFFF" points="0,-50.899 1440,107.022 0,107.022 		"/>
		<polygon id="Shape_12_" opacity="0.5" fill="#FFFFFF" points="0,13.937 1440,-30.212 1440,107.022 0,107.022 		"/>
		<polygon id="Shape_6_" opacity="0.5" fill="#FFFFFF" points="0,62.057 1440,-79.148 1440,107.022 0,107.022 		"/>
	</g>
	<g id="Bottom_1_">
		<rect id="Background_1_" y="773.83" fill="#FFFFEB" width="1440" height="186.17"/>
		<polygon id="Shape_11_" opacity="0.2" fill="#FFFFFF" points="1440,773.83 0,854.232 0,773.83 		"/>
		<polygon id="Shape_10_" opacity="0.2" fill="#FFFFFF" points="0,773.83 1440,931.75 1440,773.83 		"/>
		<polygon id="Shape_9_" opacity="0.5" fill="#FFFFFF" points="0,931.75 1440,773.83 0,773.83 		"/>
		<polygon id="Shape_8_" opacity="0.5" fill="#FFFFFF" points="0,866.915 1440,911.063 1440,773.83 0,773.83 		"/>
		<polygon id="Shape_7_" opacity="0.5" fill="#FFFFFF" points="0,818.794 1440,960 1440,773.83 0,773.83 		"/>
	</g>
	<polygon id="Background_2_" fill="#FFFFFF" points="0,98.603 0,781 1440,794 1440,66.821 	"/>
	<rect id="Texte_1_" x="208" y="347.02" fill="none" width="1024" height="256"/>
	<text transform="matrix(1 0 0 1 226.749 364.1553)" display="none"><tspan x="0" y="0" display="inline" fill="#3399FF" font-family="'AktivGrotesk-Bold'" font-size="24">Lorem Khaled Ipsum is a major </tspan><tspan x="353.706" y="0" display="inline" fill="#3399FF" font-family="'AktivGrotesk-XBold'" font-size="24">key to success</tspan><tspan x="528.832" y="0" display="inline" fill="#3399FF" font-family="'AktivGrotesk-Bold'" font-size="24">. Surround yourself with angels, positive </tspan><tspan x="261.32" y="48" display="inline" fill="#3399FF" font-family="'AktivGrotesk-Bold'" font-size="24">energy, beautiful people, beautiful souls.</tspan><tspan x="0.817" y="120" display="inline" fill="#3399FF" font-family="'AktivGrotesk-Bold'" font-size="24">Surround yourself with angels, positive energy, beautiful people, beautiful souls, </tspan><tspan x="921.771" y="120" display="inline" fill="#3399FF" font-family="'AktivGrotesk-XBold'" font-size="24">clean </tspan><tspan x="18.469" y="168" display="inline" fill="#3399FF" font-family="'AktivGrotesk-XBold'" font-size="24">heart, angel</tspan><tspan x="159.227" y="168" display="inline" fill="#3399FF" font-family="'AktivGrotesk-Bold'" font-size="24">. Lion! They will try to close the door on you, just open it. The first of the </tspan><tspan x="32.879" y="216" display="inline" fill="#3399FF" font-family="'AktivGrotesk-Bold'" font-size="24">month is coming, we have to get money, we have no choice.</tspan><tspan x="708.562" y="216" display="inline" fill="#3399FF" font-family="'AktivGrotesk-Black'" font-size="24"> </tspan><tspan x="713.603" y="216" display="inline" fill="#3399FF" font-family="'AktivGrotesk-XBold'" font-size="24">It cost money to eat</tspan><tspan x="947.717" y="216" display="inline" fill="#3399FF" font-family="'AktivGrotesk-Bold'" font-size="24">.</tspan></text>
</g>
<g id="List">
</g>
<g id="List--next">
</g>
<g id="List--next_1_">
</g>
<g id="Footer">
</g>
<g id="Home">
</g>
<g id="Article">
</g>
<g id="Popup">
</g>
</svg>
